<svg xmlns="http://www.w3.org/2000/svg" width="33" height="33" viewBox="0 0 33 33">
  <g id="组_12278" data-name="组 12278" transform="translate(-2791.5 15480.501)">
    <g id="组_9811" data-name="组 9811" transform="translate(2792 -15480)">
      <g id="组_9810" data-name="组 9810" transform="translate(0 0)">
        <g id="路径_201127" data-name="路径 201127" transform="translate(9.018 8.244)">
          <path id="路径_201147" data-name="路径 201147" d="M-2343.984-708.261q0,2.04,0,4.081a.345.345,0,0,1-.2.336q-3.485,1.99-6.965,3.984a.591.591,0,0,0-.072.043.3.3,0,0,1-.363,0c-.387-.229-.778-.451-1.168-.676q-2.93-1.693-5.862-3.382a.345.345,0,0,1-.2-.335q.009-4.048.007-8.1a.39.39,0,0,1,.221-.385q3.5-2.02,7-4.054a.346.346,0,0,1,.39,0q3.537,2.059,7.076,4.111a.259.259,0,0,1,.149.245q0,2.063,0,4.127Zm-14.459-3.9v.106q0,3.885-.008,7.771a.145.145,0,0,0,.088.144q3.356,1.934,6.709,3.871c.029.016.059.031.1.053v-.131q0-3.853,0-7.705a.18.18,0,0,0-.1-.182q-3.346-1.932-6.689-3.869l-.1-.057Zm.2-.307c.033.022.056.039.081.054l6.712,3.886a.14.14,0,0,0,.16,0q3.361-1.932,6.724-3.862c.025-.014.049-.031.081-.052l-.123-.073q-3.329-1.933-6.656-3.868a.2.2,0,0,0-.234,0q-2.744,1.594-5.492,3.185Zm7.051,12.226c.042-.022.072-.036.1-.053q3.341-1.912,6.682-3.822a.139.139,0,0,0,.078-.138q.006-3.875.016-7.75v-.117l-.158.088-6.629,3.8a.159.159,0,0,0-.091.161v7.828Z" transform="translate(2358.806 716.805)" fill="#090808"/>
        </g>
        <g id="路径_201128" data-name="路径 201128" transform="translate(20.1 18.741)">
          <path id="路径_201148" data-name="路径 201148" d="M-2325.612-686.852a1.867,1.867,0,0,1-.093-.184.334.334,0,0,1,.152-.432.328.328,0,0,1,.441.123c.239.445.477.891.692,1.347a.4.4,0,0,1-.183.535.4.4,0,0,1-.207.04c-.5-.012-.99-.039-1.483-.065a.324.324,0,0,1-.3-.341.322.322,0,0,1,.32-.324c.07,0,.141.006.247.011-.05-.043-.075-.07-.106-.092l-4.064-2.924a.4.4,0,0,1-.165-.537.392.392,0,0,1,.1-.124.4.4,0,0,1,.5,0q.975.7,1.947,1.4l2.143,1.547A.3.3,0,0,0-2325.612-686.852Z" transform="translate(2330.41 689.908)" fill="#090808"/>
        </g>
        <g id="路径_201129" data-name="路径 201129" transform="translate(6.696 18.745)">
          <path id="路径_201149" data-name="路径 201149" d="M-2363.011-686.177h.139a.324.324,0,0,1,.331.312.32.32,0,0,1-.287.35l-.025,0c-.484.025-.968.051-1.452.064a.411.411,0,0,1-.45-.368.41.41,0,0,1,.054-.248c.215-.433.44-.862.666-1.288a.321.321,0,0,1,.428-.151l.018.009a.336.336,0,0,1,.149.445c-.036.082-.081.16-.14.277l2.044-1.471,2.172-1.561a.406.406,0,0,1,.572.054l.018.024a.417.417,0,0,1-.134.569l-4.093,2.942C-2363.007-686.213-2363.006-686.2-2363.011-686.177Z" transform="translate(2364.758 689.898)" fill="#090808"/>
        </g>
        <g id="路径_201130" data-name="路径 201130" transform="translate(15.281 5.796)">
          <path id="路径_201150" data-name="路径 201150" d="M-2342.035-721.415c-.03.049-.058.1-.09.148a.335.335,0,0,1-.454.124.315.315,0,0,1-.149-.419c0-.009.01-.018.015-.027.245-.436.491-.871.752-1.3a.4.4,0,0,1,.557-.133.409.409,0,0,1,.138.141c.253.418.494.843.735,1.269a.331.331,0,0,1-.1.458l-.017.011a.347.347,0,0,1-.471-.137l0-.007a.383.383,0,0,0-.1-.128v4.833a.382.382,0,0,1-.3.406.382.382,0,0,1-.451-.234.7.7,0,0,1-.03-.239q0-2.345,0-4.689v-.064Z" transform="translate(2342.757 723.08)" fill="#090808"/>
        </g>
        <g id="路径_201131" data-name="路径 201131" transform="translate(13.285 16.53)">
          <path id="路径_201151" data-name="路径 201151" d="M-2345.761-695.573a.425.425,0,0,1,.376.292.391.391,0,0,1-.161.457q-.708.511-1.417,1.019c-.093.067-.185.135-.279.2a.394.394,0,0,1-.552-.079l-.009-.012a.4.4,0,0,1,.1-.555l.009-.006c.4-.288.794-.572,1.192-.859.159-.114.316-.234.48-.34A1.747,1.747,0,0,1-2345.761-695.573Z" transform="translate(2347.874 695.573)" fill="#090808"/>
        </g>
        <g id="路径_201132" data-name="路径 201132" transform="translate(17.05 16.548)">
          <path id="路径_201152" data-name="路径 201152" d="M-2335.7-693.947a.444.444,0,0,1-.222.4.385.385,0,0,1-.429-.039l-1.366-.981c-.111-.078-.225-.156-.331-.238a.4.4,0,0,1-.1-.548h0a.4.4,0,0,1,.548-.107l.015.011q.873.616,1.732,1.251A.715.715,0,0,1-2335.7-693.947Z" transform="translate(2338.224 695.526)" fill="#090808"/>
        </g>
        <g id="路径_201133" data-name="路径 201133" transform="translate(16.031 13.552)">
          <path id="路径_201153" data-name="路径 201153" d="M-2340.051-701.751v1.045a.38.38,0,0,1-.347.411l-.039,0a.384.384,0,0,1-.4-.367c0-.011,0-.023,0-.034q0-1.054,0-2.107a.392.392,0,0,1,.382-.4h.02a.4.4,0,0,1,.381.407C-2340.05-702.447-2340.052-702.1-2340.051-701.751Z" transform="translate(2340.837 703.205)" fill="#090808"/>
        </g>
        <g id="路径_201134" data-name="路径 201134" transform="translate(3.177 3.599)">
          <path id="路径_201155" data-name="路径 201155" d="M-2373.384-724.3h-.39v-4.413h4.414v.39h-4.023Z" transform="translate(2373.774 728.709)" fill="#090808"/>
        </g>
        <g id="路径_201135" data-name="路径 201135" transform="translate(24.831 3.599)">
          <path id="路径_201156" data-name="路径 201156" d="M-2313.873-724.3h-.39v-4.023h-4.024v-.39h4.414Z" transform="translate(2318.287 728.709)" fill="#090808"/>
        </g>
        <g id="路径_201136" data-name="路径 201136" transform="translate(3.177 23.987)">
          <path id="路径_201157" data-name="路径 201157" d="M-2369.361-672.049h-4.414v-4.414h.39v4.024h4.023Z" transform="translate(2373.774 676.463)" fill="#090808"/>
        </g>
        <g id="路径_201137" data-name="路径 201137" transform="translate(24.831 23.987)">
          <path id="路径_201158" data-name="路径 201158" d="M-2313.873-672.049h-4.414v-.39h4.024v-4.024h.39Z" transform="translate(2318.287 676.463)" fill="#090808"/>
        </g>
        <g id="组_10177" data-name="组 10177" transform="translate(-2543 15349.992)">
          <g id="组_9795" data-name="组 9795" transform="translate(2543 -15349.993)">
            <g id="组_9626" data-name="组 9626" transform="translate(0 0)">
              <g id="矩形_7568" data-name="矩形 7568">
                <path id="路径_201095" data-name="路径 201095" d="M-2452.625-803.817h-20.6a5.708,5.708,0,0,1-5.7-5.7v-20.6a5.708,5.708,0,0,1,5.7-5.7h20.6a5.708,5.708,0,0,1,5.7,5.7v20.6A5.708,5.708,0,0,1-2452.625-803.817Zm-20.6-31.219a4.926,4.926,0,0,0-4.921,4.921v20.6a4.926,4.926,0,0,0,4.921,4.921h20.6a4.926,4.926,0,0,0,4.921-4.921v-20.6a4.927,4.927,0,0,0-4.921-4.921Z" transform="translate(2478.924 835.817)" fill="#090808" stroke="#090808" stroke-width="1"/>
              </g>
            </g>
          </g>
        </g>
      </g>
    </g>
  </g>
</svg>
