<svg xmlns="http://www.w3.org/2000/svg" width="33" height="33" viewBox="0 0 33 33">
  <g id="组_12276" data-name="组 12276" transform="translate(-2605.673 15412.364)">
    <g id="组_9794" data-name="组 9794" transform="translate(2606.173 -15411.864)">
      <g id="路径_200760" data-name="路径 200760">
        <path id="路径_201092" data-name="路径 201092" d="M-2295.625-957.581h-20.6a5.708,5.708,0,0,1-5.7-5.7v-20.6a5.708,5.708,0,0,1,5.7-5.7h20.6a5.709,5.709,0,0,1,5.7,5.7v20.6A5.708,5.708,0,0,1-2295.625-957.581Zm-20.6-31.219a4.926,4.926,0,0,0-4.921,4.921v20.6a4.926,4.926,0,0,0,4.921,4.921h20.6a4.926,4.926,0,0,0,4.921-4.921v-20.6a4.927,4.927,0,0,0-4.921-4.921Z" transform="translate(2321.924 989.581)" fill="#090808" stroke="#090808" stroke-width="1"/>
      </g>
      <g id="组_9624" data-name="组 9624" transform="translate(3.382 3.183)">
        <g id="椭圆_259" data-name="椭圆 259" transform="translate(2.925 3.151)">
          <path id="路径_201093" data-name="路径 201093" d="M-2296.068-953.965a9.7,9.7,0,0,1-9.693-9.692,9.7,9.7,0,0,1,9.693-9.692,9.7,9.7,0,0,1,9.692,9.692A9.7,9.7,0,0,1-2296.068-953.965Zm0-17.434a7.75,7.75,0,0,0-7.741,7.741,7.75,7.75,0,0,0,7.741,7.741,7.75,7.75,0,0,0,7.741-7.741A7.75,7.75,0,0,0-2296.068-971.4Z" transform="translate(2305.761 973.35)" fill="#090808"/>
        </g>
        <g id="椭圆_260" data-name="椭圆 260" transform="translate(7.619 7.837)">
          <path id="路径_201094" data-name="路径 201094" d="M-2288.753-951.382a4.986,4.986,0,0,1-4.981-4.981,4.986,4.986,0,0,1,4.981-4.981,4.986,4.986,0,0,1,4.981,4.981A4.987,4.987,0,0,1-2288.753-951.382Zm0-8.987a4.01,4.01,0,0,0-4.005,4.005,4.01,4.01,0,0,0,4.005,4.006,4.01,4.01,0,0,0,4.005-4.006A4.01,4.01,0,0,0-2288.753-960.368Z" transform="translate(2293.734 961.344)" fill="#090808"/>
        </g>
        <g id="直线_150" data-name="直线 150" transform="translate(0 12.434)">
          <rect id="矩形_7828" data-name="矩形 7828" width="25.635" height="0.976" fill="#090808"/>
        </g>
        <g id="直线_151" data-name="直线 151" transform="translate(12.33)">
          <rect id="矩形_7829" data-name="矩形 7829" width="0.976" height="25.635" fill="#090808"/>
        </g>
      </g>
    </g>
  </g>
</svg>
