<svg xmlns="http://www.w3.org/2000/svg" width="33" height="33" viewBox="0 0 33 33">
  <g id="组_12279" data-name="组 12279" transform="translate(-2641.082 15350.493)">
    <g id="组_9796" data-name="组 9796" transform="translate(2641.582 -15349.993)">
      <g id="组_9631" data-name="组 9631" transform="translate(0 0)">
        <g id="矩形_7591" data-name="矩形 7591">
          <path id="路径_201116" data-name="路径 201116" d="M-2207.625-803.817h-20.6a5.708,5.708,0,0,1-5.7-5.7v-20.6a5.708,5.708,0,0,1,5.7-5.7h20.6a5.708,5.708,0,0,1,5.7,5.7v20.6A5.708,5.708,0,0,1-2207.625-803.817Zm-20.6-31.219a4.926,4.926,0,0,0-4.921,4.921v20.6a4.926,4.926,0,0,0,4.921,4.921h20.6a4.926,4.926,0,0,0,4.921-4.921v-20.6a4.927,4.927,0,0,0-4.921-4.921Z" transform="translate(2233.923 835.817)" fill="#090808" stroke="#090808" stroke-width="1"/>
        </g>
      </g>
      <g id="路径_200751" data-name="路径 200751" transform="translate(13.329 19.145)">
        <path id="路径_201117" data-name="路径 201117" d="M-2193.626-782.7v.327c0,.429,0,.859,0,1.29a.212.212,0,0,1-.053.135q-1.477,1.487-2.959,2.968l-.061.055c-.144-.146-.286-.29-.429-.433l-2.55-2.553a.261.261,0,0,1-.086-.2c0-.494,0-.989,0-1.483v-.1l2.423,2.411.027-.014v-6.458h1.23v6.456l2.426-2.415Z" transform="translate(2199.767 786.757)" fill="#090808"/>
      </g>
      <g id="路径_200752" data-name="路径 200752" transform="translate(13.329 4.019)">
        <path id="路径_201118" data-name="路径 201118" d="M-2193.626-820.743v-.327c0-.429,0-.859,0-1.29a.213.213,0,0,0-.053-.135q-1.477-1.486-2.959-2.968l-.061-.055c-.144.146-.286.29-.429.433q-1.275,1.278-2.55,2.553a.261.261,0,0,0-.086.2c0,.495,0,.989,0,1.483v.1l2.423-2.411.027.014v6.459h1.23v-6.455l2.426,2.415Z" transform="translate(2199.767 825.518)" fill="#090808"/>
      </g>
      <g id="路径_200753" data-name="路径 200753" transform="translate(19.11 13.174)">
        <path id="路径_201119" data-name="路径 201119" d="M-2180.894-802.059h.327c.429,0,.859,0,1.29,0a.215.215,0,0,1,.135.053q1.486,1.477,2.968,2.959c.016.016.03.033.055.061l-.434.429-2.553,2.55a.257.257,0,0,1-.2.086c-.495,0-.989,0-1.483,0h-.1l2.411-2.423-.015-.027h-6.459v-1.23h6.457l-2.415-2.426Z" transform="translate(2184.954 802.059)" fill="#090808"/>
      </g>
      <g id="路径_200754" data-name="路径 200754" transform="translate(4.688 13.174)">
        <path id="路径_201120" data-name="路径 201120" d="M-2217.137-802.059h-.327c-.429,0-.859,0-1.29,0a.214.214,0,0,0-.135.053q-1.486,1.477-2.966,2.959c-.016.016-.031.033-.055.061l.433.429,2.553,2.55a.258.258,0,0,0,.2.086c.495,0,.99,0,1.483,0h.1l-2.411-2.423.014-.027h6.459v-1.23h-6.456l2.415-2.426Z" transform="translate(2221.911 802.059)" fill="#090808"/>
      </g>
    </g>
  </g>
</svg>
