<svg xmlns="http://www.w3.org/2000/svg" width="33" height="33" viewBox="0 0 33 33">
  <g id="组_9839" data-name="组 9839" transform="translate(-2542.5 15350.493)">
    <g id="组_9795" data-name="组 9795" transform="translate(2543 -15349.993)">
      <g id="组_9626" data-name="组 9626" transform="translate(0 0)">
        <g id="矩形_7568" data-name="矩形 7568">
          <path id="路径_201095" data-name="路径 201095" d="M-2452.625-803.817h-20.6a5.708,5.708,0,0,1-5.7-5.7v-20.6a5.708,5.708,0,0,1,5.7-5.7h20.6a5.708,5.708,0,0,1,5.7,5.7v20.6A5.708,5.708,0,0,1-2452.625-803.817Zm-20.6-31.219a4.926,4.926,0,0,0-4.921,4.921v20.6a4.926,4.926,0,0,0,4.921,4.921h20.6a4.926,4.926,0,0,0,4.921-4.921v-20.6a4.927,4.927,0,0,0-4.921-4.921Z" transform="translate(2478.924 835.817)" fill="#090808" stroke="#090808" stroke-width="1"/>
        </g>
      </g>
      <g id="_18" data-name=" 18" transform="translate(3.134 18.482)" style="mix-blend-mode: normal;isolation: isolate">
        <g id="组_9800" data-name="组 9800" style="mix-blend-mode: normal;isolation: isolate">
          <path id="路径_201096" data-name="路径 201096" d="M-2467.806-780.043h-1.029V-786.6a5.316,5.316,0,0,1-.975.709,6.852,6.852,0,0,1-1.083.531v-.994a6.227,6.227,0,0,0,1.509-.983,3.86,3.86,0,0,0,.914-1.12h.664Z" transform="translate(2470.894 788.457)" fill="#090808"/>
          <path id="路径_201097" data-name="路径 201097" d="M-2454.665-784.587a1.937,1.937,0,0,1-.949-.669,1.748,1.748,0,0,1-.309-1.04,2.034,2.034,0,0,1,.658-1.538,2.437,2.437,0,0,1,1.749-.623,2.456,2.456,0,0,1,1.767.637,2.066,2.066,0,0,1,.669,1.552,1.712,1.712,0,0,1-.306,1.015,1.929,1.929,0,0,1-.929.666,2.253,2.253,0,0,1,1.175.812,2.231,2.231,0,0,1,.4,1.338,2.408,2.408,0,0,1-.761,1.806,2.763,2.763,0,0,1-2,.732,2.758,2.758,0,0,1-2-.734,2.444,2.444,0,0,1-.76-1.832,2.213,2.213,0,0,1,.415-1.369A2.075,2.075,0,0,1-2454.665-784.587Zm-.537,2.126a1.858,1.858,0,0,0,.209.852,1.471,1.471,0,0,0,.62.637,1.813,1.813,0,0,0,.886.226,1.661,1.661,0,0,0,1.218-.475,1.625,1.625,0,0,0,.48-1.206,1.651,1.651,0,0,0-.494-1.229,1.7,1.7,0,0,0-1.237-.486,1.627,1.627,0,0,0-1.2.48A1.634,1.634,0,0,0-2455.2-782.46Zm.332-3.87a1.3,1.3,0,0,0,.383.972,1.356,1.356,0,0,0,.995.377,1.331,1.331,0,0,0,.975-.374,1.238,1.238,0,0,0,.38-.918,1.285,1.285,0,0,0-.392-.952,1.334,1.334,0,0,0-.975-.385,1.345,1.345,0,0,0-.977.377A1.215,1.215,0,0,0-2454.871-786.33Z" transform="translate(2461.971 788.457)" fill="#090808"/>
        </g>
      </g>
      <g id="fps" transform="translate(19.258 25.635)" style="mix-blend-mode: normal;isolation: isolate">
        <g id="组_9801" data-name="组 9801" transform="translate(0 -0.45)" style="mix-blend-mode: normal;isolation: isolate">
          <path id="路径_201098" data-name="路径 201098" d="M-2429.2-766.65V-768.8h-.371v-.327h.371v-.263a1.166,1.166,0,0,1,.044-.371.535.535,0,0,1,.214-.265.767.767,0,0,1,.428-.1,2.077,2.077,0,0,1,.392.041l-.063.367a1.4,1.4,0,0,0-.247-.023.365.365,0,0,0-.271.082.441.441,0,0,0-.079.305v.229h.483v.327h-.483v2.151Z" transform="translate(2429.576 770.128)" fill="#090808"/>
          <path id="路径_201099" data-name="路径 201099" d="M-2425.9-764.471V-767.9h.383v.322a.935.935,0,0,1,.305-.284.842.842,0,0,1,.413-.095.978.978,0,0,1,.56.163,1,1,0,0,1,.367.461,1.692,1.692,0,0,1,.124.653,1.664,1.664,0,0,1-.136.685,1.031,1.031,0,0,1-.4.467,1.016,1.016,0,0,1-.547.162.791.791,0,0,1-.377-.089.851.851,0,0,1-.274-.224v1.206Zm.381-2.175a1.078,1.078,0,0,0,.193.707.594.594,0,0,0,.469.228.605.605,0,0,0,.479-.237,1.121,1.121,0,0,0,.2-.734,1.1,1.1,0,0,0-.195-.709.588.588,0,0,0-.465-.236.606.606,0,0,0-.475.251A1.122,1.122,0,0,0-2425.516-766.645Z" transform="translate(2427.495 768.898)" fill="#090808"/>
          <path id="路径_201100" data-name="路径 201100" d="M-2420.166-766.16l.415-.065a.575.575,0,0,0,.2.383.676.676,0,0,0,.447.133.654.654,0,0,0,.429-.118.353.353,0,0,0,.14-.277.255.255,0,0,0-.124-.224,1.821,1.821,0,0,0-.429-.143,3.878,3.878,0,0,1-.64-.2.621.621,0,0,1-.271-.235.626.626,0,0,1-.092-.333.64.64,0,0,1,.075-.307.683.683,0,0,1,.207-.235.872.872,0,0,1,.268-.122,1.256,1.256,0,0,1,.363-.05,1.432,1.432,0,0,1,.512.084.694.694,0,0,1,.325.227.887.887,0,0,1,.145.384l-.411.056a.45.45,0,0,0-.162-.3.592.592,0,0,0-.379-.107.692.692,0,0,0-.413.1.278.278,0,0,0-.123.224.232.232,0,0,0,.051.147.37.37,0,0,0,.161.112c.042.016.166.052.371.107a5.1,5.1,0,0,1,.622.2.631.631,0,0,1,.276.22.617.617,0,0,1,.1.36.707.707,0,0,1-.122.4.794.794,0,0,1-.354.287,1.294,1.294,0,0,1-.523.1,1.163,1.163,0,0,1-.736-.2A.928.928,0,0,1-2420.166-766.16Z" transform="translate(2424.253 768.898)" fill="#090808"/>
        </g>
      </g>
      <g id="路径_200746" data-name="路径 200746" transform="translate(14.291 0.999)">
        <path id="路径_201101" data-name="路径 201101" d="M-2442.3-819.675c.031-.127.048-.213.073-.3q2.035-6.513,4.07-13.026c.046-.147.081-.26.29-.259,2.186.009,4.371.005,6.556.006.048,0,.1.009.19.018l-5.094,9.34h9.357c-4.326,5.71-10.9,15.014-15.191,20.672-.01-.005,2.271-3.657,2.263-3.662l6.411-12.793Z" transform="translate(2442.303 833.256)" fill="#090808"/>
      </g>
    </g>
  </g>
</svg>
